<mxfile host="app.diagrams.net" modified="2023-04-13T09:30:33.460Z" agent="Mozilla/5.0 (Macintosh; Intel Mac OS X 10_15_7) AppleWebKit/537.36 (KHTML, like Gecko) Chrome/111.0.0.0 Safari/537.36" version="21.1.7" etag="_KLr_n7vPXA-ydBgHs0Q" type="github">
  <diagram name="第 1 页" id="Fy5oD9_zXD0CF95pp_2H">
    <mxGraphModel>
      <root>
        <mxCell id="0" />
        <mxCell id="1" parent="0" />
      </root>
    </mxGraphModel>
  </diagram>
</mxfile>
